<mxfile host="app.diagrams.net" agent="Mozilla/5.0 (Windows NT 10.0; Win64; x64) AppleWebKit/537.36 (KHTML, like Gecko) Chrome/136.0.0.0 Safari/537.36" version="27.1.6">
  <diagram name="Page-1" id="-CwtEWw41aohZUExlMO3">
    <mxGraphModel dx="3432" dy="2507" grid="1" gridSize="10" guides="1" tooltips="1" connect="1" arrows="1" fold="1" page="1" pageScale="1" pageWidth="827" pageHeight="1169" math="0" shadow="0">
      <root>
        <mxCell id="0" />
        <mxCell id="1" parent="0" />
        <mxCell id="KNzRoe-H2dwilirKSda7-36" value="" style="rounded=0;whiteSpace=wrap;html=1;fillColor=none;" vertex="1" parent="1">
          <mxGeometry y="-10" width="830" height="1170" as="geometry" />
        </mxCell>
        <mxCell id="KNzRoe-H2dwilirKSda7-33" style="rounded=0;orthogonalLoop=1;jettySize=auto;html=1;entryX=0;entryY=0.5;entryDx=0;entryDy=0;" edge="1" parent="1" source="OOo81Jww4FLoJAZ8fKIq-2" target="KNzRoe-H2dwilirKSda7-12">
          <mxGeometry relative="1" as="geometry" />
        </mxCell>
        <mxCell id="KNzRoe-H2dwilirKSda7-34" style="rounded=0;orthogonalLoop=1;jettySize=auto;html=1;entryX=0;entryY=0.5;entryDx=0;entryDy=0;" edge="1" parent="1" source="OOo81Jww4FLoJAZ8fKIq-2" target="OOo81Jww4FLoJAZ8fKIq-35">
          <mxGeometry relative="1" as="geometry" />
        </mxCell>
        <mxCell id="OOo81Jww4FLoJAZ8fKIq-2" value="&lt;b&gt;Customer&lt;/b&gt;" style="shape=umlActor;verticalLabelPosition=bottom;verticalAlign=top;html=1;fontSize=15;" parent="1" vertex="1">
          <mxGeometry x="-170" y="140" width="40" height="80" as="geometry" />
        </mxCell>
        <mxCell id="OOo81Jww4FLoJAZ8fKIq-11" value="Maintenance" style="ellipse;whiteSpace=wrap;html=1;fontStyle=1;fontSize=15;" parent="1" vertex="1">
          <mxGeometry x="210" y="940" width="140" height="80" as="geometry" />
        </mxCell>
        <mxCell id="OOo81Jww4FLoJAZ8fKIq-12" value="Bug Fixes" style="ellipse;whiteSpace=wrap;html=1;fontStyle=1;fontSize=15;" parent="1" vertex="1">
          <mxGeometry x="210" y="1050" width="140" height="80" as="geometry" />
        </mxCell>
        <mxCell id="KNzRoe-H2dwilirKSda7-27" style="rounded=0;orthogonalLoop=1;jettySize=auto;html=1;entryX=0;entryY=0.5;entryDx=0;entryDy=0;" edge="1" parent="1" source="OOo81Jww4FLoJAZ8fKIq-14" target="OOo81Jww4FLoJAZ8fKIq-11">
          <mxGeometry relative="1" as="geometry" />
        </mxCell>
        <mxCell id="KNzRoe-H2dwilirKSda7-28" style="rounded=0;orthogonalLoop=1;jettySize=auto;html=1;entryX=0;entryY=0.5;entryDx=0;entryDy=0;" edge="1" parent="1" source="OOo81Jww4FLoJAZ8fKIq-14" target="OOo81Jww4FLoJAZ8fKIq-12">
          <mxGeometry relative="1" as="geometry" />
        </mxCell>
        <mxCell id="OOo81Jww4FLoJAZ8fKIq-14" value="&lt;b&gt;Gcash&amp;nbsp;&lt;/b&gt;&lt;div&gt;&lt;b&gt;Software Engineers&lt;/b&gt;&lt;/div&gt;" style="shape=umlActor;verticalLabelPosition=bottom;verticalAlign=top;html=1;fontSize=15;" parent="1" vertex="1">
          <mxGeometry x="70" y="980" width="40" height="80" as="geometry" />
        </mxCell>
        <mxCell id="KNzRoe-H2dwilirKSda7-11" style="rounded=0;orthogonalLoop=1;jettySize=auto;html=1;entryX=1;entryY=0.5;entryDx=0;entryDy=0;" edge="1" parent="1" source="OOo81Jww4FLoJAZ8fKIq-24" target="KNzRoe-H2dwilirKSda7-7">
          <mxGeometry relative="1" as="geometry" />
        </mxCell>
        <mxCell id="KNzRoe-H2dwilirKSda7-32" style="edgeStyle=orthogonalEdgeStyle;rounded=0;orthogonalLoop=1;jettySize=auto;html=1;entryX=1;entryY=0.5;entryDx=0;entryDy=0;" edge="1" parent="1" source="OOo81Jww4FLoJAZ8fKIq-24" target="OOo81Jww4FLoJAZ8fKIq-34">
          <mxGeometry relative="1" as="geometry">
            <Array as="points">
              <mxPoint x="1032" y="570" />
            </Array>
          </mxGeometry>
        </mxCell>
        <mxCell id="OOo81Jww4FLoJAZ8fKIq-24" value="&lt;b&gt;Gcash App&lt;/b&gt;" style="html=1;whiteSpace=wrap;fontSize=15;" parent="1" vertex="1">
          <mxGeometry x="952" y="60" width="160" height="80" as="geometry" />
        </mxCell>
        <mxCell id="OOo81Jww4FLoJAZ8fKIq-34" value="Customer&lt;div&gt;Transactions&lt;/div&gt;" style="ellipse;whiteSpace=wrap;html=1;fontStyle=1;fontSize=15;" parent="1" vertex="1">
          <mxGeometry x="330" y="530" width="140" height="80" as="geometry" />
        </mxCell>
        <mxCell id="KNzRoe-H2dwilirKSda7-20" style="edgeStyle=orthogonalEdgeStyle;rounded=0;orthogonalLoop=1;jettySize=auto;html=1;entryX=0;entryY=0.5;entryDx=0;entryDy=0;exitX=0.5;exitY=1;exitDx=0;exitDy=0;" edge="1" parent="1" source="OOo81Jww4FLoJAZ8fKIq-35" target="OOo81Jww4FLoJAZ8fKIq-34">
          <mxGeometry relative="1" as="geometry" />
        </mxCell>
        <mxCell id="OOo81Jww4FLoJAZ8fKIq-35" value="Login" style="ellipse;whiteSpace=wrap;html=1;fontStyle=1;fontSize=15;" parent="1" vertex="1">
          <mxGeometry x="110" y="210" width="140" height="80" as="geometry" />
        </mxCell>
        <mxCell id="OOo81Jww4FLoJAZ8fKIq-56" style="rounded=0;orthogonalLoop=1;jettySize=auto;html=1;dashed=1;" parent="1" source="OOo81Jww4FLoJAZ8fKIq-36" target="OOo81Jww4FLoJAZ8fKIq-34" edge="1">
          <mxGeometry relative="1" as="geometry" />
        </mxCell>
        <mxCell id="OOo81Jww4FLoJAZ8fKIq-57" value="&amp;lt;&amp;lt;include&amp;gt;&amp;gt;" style="edgeLabel;html=1;align=center;verticalAlign=middle;resizable=0;points=[];rotation=-90;fontSize=13;" parent="OOo81Jww4FLoJAZ8fKIq-56" vertex="1" connectable="0">
          <mxGeometry x="0.0574" y="6" relative="1" as="geometry">
            <mxPoint x="-14" y="-5" as="offset" />
          </mxGeometry>
        </mxCell>
        <mxCell id="OOo81Jww4FLoJAZ8fKIq-36" value="Customer Authentication" style="ellipse;whiteSpace=wrap;html=1;fontStyle=1;fontSize=15;" parent="1" vertex="1">
          <mxGeometry x="330" y="320" width="140" height="80" as="geometry" />
        </mxCell>
        <mxCell id="OOo81Jww4FLoJAZ8fKIq-55" style="rounded=0;orthogonalLoop=1;jettySize=auto;html=1;entryX=0.5;entryY=1;entryDx=0;entryDy=0;endArrow=none;endFill=1;strokeColor=default;startFill=0;edgeStyle=orthogonalEdgeStyle;" parent="1" source="OOo81Jww4FLoJAZ8fKIq-1" target="OOo81Jww4FLoJAZ8fKIq-34" edge="1">
          <mxGeometry relative="1" as="geometry">
            <Array as="points">
              <mxPoint x="640" y="680" />
              <mxPoint x="400" y="680" />
            </Array>
          </mxGeometry>
        </mxCell>
        <mxCell id="OOo81Jww4FLoJAZ8fKIq-1" value="Check Balance" style="ellipse;whiteSpace=wrap;html=1;fontStyle=1;fontSize=15;" parent="1" vertex="1">
          <mxGeometry x="570" y="750" width="140" height="80" as="geometry" />
        </mxCell>
        <mxCell id="OOo81Jww4FLoJAZ8fKIq-53" style="rounded=0;orthogonalLoop=1;jettySize=auto;html=1;entryX=0.5;entryY=1;entryDx=0;entryDy=0;endArrow=none;startFill=0;edgeStyle=orthogonalEdgeStyle;" parent="1" source="OOo81Jww4FLoJAZ8fKIq-8" target="OOo81Jww4FLoJAZ8fKIq-34" edge="1">
          <mxGeometry relative="1" as="geometry">
            <Array as="points">
              <mxPoint x="320" y="680" />
              <mxPoint x="400" y="680" />
            </Array>
          </mxGeometry>
        </mxCell>
        <mxCell id="OOo81Jww4FLoJAZ8fKIq-8" value="Withdraw Cash" style="ellipse;whiteSpace=wrap;html=1;fontStyle=1;fontSize=15;" parent="1" vertex="1">
          <mxGeometry x="250" y="750" width="140" height="80" as="geometry" />
        </mxCell>
        <mxCell id="OOo81Jww4FLoJAZ8fKIq-54" style="rounded=0;orthogonalLoop=1;jettySize=auto;html=1;endArrow=none;startFill=0;entryX=0.5;entryY=1;entryDx=0;entryDy=0;edgeStyle=orthogonalEdgeStyle;" parent="1" source="OOo81Jww4FLoJAZ8fKIq-9" target="OOo81Jww4FLoJAZ8fKIq-34" edge="1">
          <mxGeometry relative="1" as="geometry">
            <Array as="points">
              <mxPoint x="480" y="680" />
              <mxPoint x="400" y="680" />
            </Array>
          </mxGeometry>
        </mxCell>
        <mxCell id="OOo81Jww4FLoJAZ8fKIq-9" value="Deposit Funds" style="ellipse;whiteSpace=wrap;html=1;fontStyle=1;fontSize=15;" parent="1" vertex="1">
          <mxGeometry x="410" y="750" width="140" height="80" as="geometry" />
        </mxCell>
        <mxCell id="OOo81Jww4FLoJAZ8fKIq-52" style="rounded=0;orthogonalLoop=1;jettySize=auto;html=1;endArrow=classic;startFill=0;entryX=0.5;entryY=1;entryDx=0;entryDy=0;edgeStyle=orthogonalEdgeStyle;endFill=1;" parent="1" source="OOo81Jww4FLoJAZ8fKIq-10" target="OOo81Jww4FLoJAZ8fKIq-34" edge="1">
          <mxGeometry relative="1" as="geometry">
            <Array as="points">
              <mxPoint x="160" y="680" />
              <mxPoint x="400" y="680" />
            </Array>
          </mxGeometry>
        </mxCell>
        <mxCell id="OOo81Jww4FLoJAZ8fKIq-10" value="Transfer Funds" style="ellipse;whiteSpace=wrap;html=1;fontStyle=1;fontSize=15;" parent="1" vertex="1">
          <mxGeometry x="90" y="750" width="140" height="80" as="geometry" />
        </mxCell>
        <mxCell id="KNzRoe-H2dwilirKSda7-5" style="rounded=0;orthogonalLoop=1;jettySize=auto;html=1;entryX=1;entryY=0.5;entryDx=0;entryDy=0;dashed=1;" edge="1" parent="1" source="KNzRoe-H2dwilirKSda7-4" target="OOo81Jww4FLoJAZ8fKIq-36">
          <mxGeometry relative="1" as="geometry" />
        </mxCell>
        <mxCell id="KNzRoe-H2dwilirKSda7-6" value="&amp;lt;&amp;lt;include&amp;gt;&amp;gt;" style="edgeLabel;html=1;align=center;verticalAlign=middle;resizable=0;points=[];rotation=0;fontSize=13;" vertex="1" connectable="0" parent="KNzRoe-H2dwilirKSda7-5">
          <mxGeometry x="-0.1023" y="1" relative="1" as="geometry">
            <mxPoint x="-8" y="-9" as="offset" />
          </mxGeometry>
        </mxCell>
        <mxCell id="KNzRoe-H2dwilirKSda7-16" style="edgeStyle=orthogonalEdgeStyle;rounded=0;orthogonalLoop=1;jettySize=auto;html=1;entryX=1;entryY=0.5;entryDx=0;entryDy=0;dashed=1;exitX=0.5;exitY=0;exitDx=0;exitDy=0;" edge="1" parent="1" source="OOo81Jww4FLoJAZ8fKIq-36" target="OOo81Jww4FLoJAZ8fKIq-35">
          <mxGeometry relative="1" as="geometry">
            <Array as="points">
              <mxPoint x="400" y="250" />
            </Array>
          </mxGeometry>
        </mxCell>
        <mxCell id="KNzRoe-H2dwilirKSda7-18" value="&amp;lt;&amp;lt;include&amp;gt;&amp;gt;" style="edgeLabel;html=1;align=center;verticalAlign=middle;resizable=0;points=[];fontSize=13;" vertex="1" connectable="0" parent="KNzRoe-H2dwilirKSda7-16">
          <mxGeometry x="0.3087" y="3" relative="1" as="geometry">
            <mxPoint x="44" y="-12" as="offset" />
          </mxGeometry>
        </mxCell>
        <mxCell id="KNzRoe-H2dwilirKSda7-4" value="Personal Identification Number (PIN)" style="ellipse;whiteSpace=wrap;html=1;fontStyle=1;fontSize=15;" vertex="1" parent="1">
          <mxGeometry x="630" y="305" width="150" height="110" as="geometry" />
        </mxCell>
        <mxCell id="KNzRoe-H2dwilirKSda7-9" style="rounded=0;orthogonalLoop=1;jettySize=auto;html=1;entryX=1;entryY=0.5;entryDx=0;entryDy=0;dashed=1;" edge="1" parent="1" source="KNzRoe-H2dwilirKSda7-7" target="KNzRoe-H2dwilirKSda7-8">
          <mxGeometry relative="1" as="geometry" />
        </mxCell>
        <mxCell id="KNzRoe-H2dwilirKSda7-10" value="&amp;lt;&amp;lt;extends&amp;gt;&amp;gt;" style="edgeLabel;html=1;align=center;verticalAlign=middle;resizable=0;points=[];fontSize=13;" vertex="1" connectable="0" parent="KNzRoe-H2dwilirKSda7-9">
          <mxGeometry x="0.1708" y="-3" relative="1" as="geometry">
            <mxPoint x="10" y="-9" as="offset" />
          </mxGeometry>
        </mxCell>
        <mxCell id="KNzRoe-H2dwilirKSda7-29" value="{if customer requests help.}" style="edgeLabel;html=1;align=center;verticalAlign=middle;resizable=0;points=[];fontSize=13;" vertex="1" connectable="0" parent="KNzRoe-H2dwilirKSda7-9">
          <mxGeometry x="-0.1009" relative="1" as="geometry">
            <mxPoint x="-6" y="10" as="offset" />
          </mxGeometry>
        </mxCell>
        <mxCell id="KNzRoe-H2dwilirKSda7-7" value="App Transaction" style="ellipse;whiteSpace=wrap;html=1;fontStyle=1;fontSize=15;" vertex="1" parent="1">
          <mxGeometry x="635" y="60" width="140" height="80" as="geometry" />
        </mxCell>
        <mxCell id="KNzRoe-H2dwilirKSda7-8" value="Menu" style="ellipse;whiteSpace=wrap;html=1;fontStyle=1;fontSize=15;" vertex="1" parent="1">
          <mxGeometry x="332" y="60" width="140" height="80" as="geometry" />
        </mxCell>
        <mxCell id="KNzRoe-H2dwilirKSda7-13" style="edgeStyle=orthogonalEdgeStyle;rounded=0;orthogonalLoop=1;jettySize=auto;html=1;entryX=0;entryY=0.5;entryDx=0;entryDy=0;" edge="1" parent="1" source="KNzRoe-H2dwilirKSda7-12" target="KNzRoe-H2dwilirKSda7-8">
          <mxGeometry relative="1" as="geometry" />
        </mxCell>
        <mxCell id="KNzRoe-H2dwilirKSda7-12" value="App Help" style="ellipse;whiteSpace=wrap;html=1;fontStyle=1;fontSize=15;" vertex="1" parent="1">
          <mxGeometry x="110" y="60" width="140" height="80" as="geometry" />
        </mxCell>
        <mxCell id="KNzRoe-H2dwilirKSda7-25" style="rounded=0;orthogonalLoop=1;jettySize=auto;html=1;entryX=1;entryY=0.5;entryDx=0;entryDy=0;" edge="1" parent="1" source="KNzRoe-H2dwilirKSda7-21" target="OOo81Jww4FLoJAZ8fKIq-11">
          <mxGeometry relative="1" as="geometry" />
        </mxCell>
        <mxCell id="KNzRoe-H2dwilirKSda7-26" style="rounded=0;orthogonalLoop=1;jettySize=auto;html=1;entryX=1;entryY=0.5;entryDx=0;entryDy=0;" edge="1" parent="1" source="KNzRoe-H2dwilirKSda7-21" target="OOo81Jww4FLoJAZ8fKIq-12">
          <mxGeometry relative="1" as="geometry" />
        </mxCell>
        <mxCell id="KNzRoe-H2dwilirKSda7-21" value="Diagnostics" style="ellipse;whiteSpace=wrap;html=1;fontStyle=1;fontSize=15;" vertex="1" parent="1">
          <mxGeometry x="420" y="1010" width="140" height="80" as="geometry" />
        </mxCell>
        <mxCell id="KNzRoe-H2dwilirKSda7-23" style="rounded=0;orthogonalLoop=1;jettySize=auto;html=1;entryX=1;entryY=0.5;entryDx=0;entryDy=0;" edge="1" parent="1" source="KNzRoe-H2dwilirKSda7-22" target="OOo81Jww4FLoJAZ8fKIq-11">
          <mxGeometry relative="1" as="geometry" />
        </mxCell>
        <mxCell id="KNzRoe-H2dwilirKSda7-22" value="Software Updates" style="ellipse;whiteSpace=wrap;html=1;fontStyle=1;fontSize=15;" vertex="1" parent="1">
          <mxGeometry x="420" y="890" width="140" height="80" as="geometry" />
        </mxCell>
        <mxCell id="KNzRoe-H2dwilirKSda7-37" value="Gcash Business Use-Case Diagram" style="text;html=1;align=center;verticalAlign=middle;resizable=0;points=[];autosize=1;strokeColor=none;fillColor=none;fontSize=13;" vertex="1" parent="1">
          <mxGeometry x="2" y="-42" width="230" height="30" as="geometry" />
        </mxCell>
        <mxCell id="KNzRoe-H2dwilirKSda7-38" value="System Boundary" style="text;html=1;align=center;verticalAlign=middle;resizable=0;points=[];autosize=1;strokeColor=none;fillColor=none;fontSize=13;" vertex="1" parent="1">
          <mxGeometry x="5" y="-9" width="130" height="30" as="geometry" />
        </mxCell>
        <mxCell id="KNzRoe-H2dwilirKSda7-40" value="&lt;font style=&quot;font-size: 35px;&quot;&gt;Task-Sheet 1-6-1&lt;/font&gt;" style="text;html=1;align=center;verticalAlign=middle;resizable=0;points=[];autosize=1;strokeColor=none;fillColor=none;" vertex="1" parent="1">
          <mxGeometry x="270" y="-129" width="290" height="60" as="geometry" />
        </mxCell>
        <mxCell id="KNzRoe-H2dwilirKSda7-41" value="Created by: Carlos Go" style="text;html=1;align=center;verticalAlign=middle;resizable=0;points=[];autosize=1;strokeColor=none;fillColor=none;fontSize=15;" vertex="1" parent="1">
          <mxGeometry x="330" y="-79" width="170" height="30" as="geometry" />
        </mxCell>
      </root>
    </mxGraphModel>
  </diagram>
</mxfile>
